HIERARCHY
ROOT Bone
{
	OFFSET 0.000000 0.000000 0.000000
	CHANNELS 6 Xposition Yposition Zposition Xrotation Yrotation Zrotation
	JOINT Bone.001
	{
		OFFSET 0.000000 0.000000 1.000000
		CHANNELS 3 Xrotation Yrotation Zrotation
		JOINT Bone.002
		{
			OFFSET 0.000000 0.000000 1.036935
			CHANNELS 3 Xrotation Yrotation Zrotation
			JOINT Bone.003
			{
				OFFSET 0.000000 0.000000 1.036935
				CHANNELS 3 Xrotation Yrotation Zrotation
				End Site
				{
					OFFSET 0.000000 0.000000 1.036935
				}
			}
			JOINT Bone.006
			{
				OFFSET 0.000000 0.000000 1.036935
				CHANNELS 3 Xrotation Yrotation Zrotation
				JOINT Bone.012
				{
					OFFSET 0.881496 0.377797 -0.171547
					CHANNELS 3 Xrotation Yrotation Zrotation
					JOINT Bone.013
					{
						OFFSET 0.599167 0.117619 0.012455
						CHANNELS 3 Xrotation Yrotation Zrotation
						End Site
						{
							OFFSET 0.507261 0.052399 0.071670
						}
					}
				}
			}
			JOINT Bone.007
			{
				OFFSET 0.000000 0.000000 1.036935
				CHANNELS 3 Xrotation Yrotation Zrotation
				JOINT Bone.014
				{
					OFFSET 0.811280 -0.534900 -0.071399
					CHANNELS 3 Xrotation Yrotation Zrotation
					JOINT Bone.015
					{
						OFFSET 0.537320 -0.063827 0.009844
						CHANNELS 3 Xrotation Yrotation Zrotation
						End Site
						{
							OFFSET 0.610871 -0.006165 -0.003823
						}
					}
				}
			}
		}
	}
	JOINT Bone.004
	{
		OFFSET 0.000000 0.000000 1.000000
		CHANNELS 3 Xrotation Yrotation Zrotation
		JOINT Bone.010
		{
			OFFSET 0.783816 0.430767 0.066367
			CHANNELS 3 Xrotation Yrotation Zrotation
			JOINT Bone.011
			{
				OFFSET 0.686397 0.118030 0.011078
				CHANNELS 3 Xrotation Yrotation Zrotation
				End Site
				{
					OFFSET 0.536088 0.015332 0.031030
				}
			}
		}
	}
	JOINT Bone.005
	{
		OFFSET 0.000000 0.000000 1.000000
		CHANNELS 3 Xrotation Yrotation Zrotation
		JOINT Bone.008
		{
			OFFSET 0.910623 -0.376294 0.149319
			CHANNELS 3 Xrotation Yrotation Zrotation
			JOINT Bone.009
			{
				OFFSET 0.609001 -0.134920 -0.037217
				CHANNELS 3 Xrotation Yrotation Zrotation
				End Site
				{
					OFFSET 0.458778 0.005825 -0.048692
				}
			}
		}
	}
}
MOTION
Frames: 8
Frame Time: 0.041667
0.269079 0.000000 -0.000000 -0.000000 0.000000 -0.000000 -0.000000 0.000000 -0.000000 -0.000000 0.000000 -0.000000 0.000000 0.000000 -0.000000 -0.000000 -0.000000 0.000002 1.193418 -1.649860 0.656441 0.000000 0.000000 0.000000 0.000000 0.000000 -0.000000 0.000000 0.000000 -0.000001 -0.000000 -0.000000 -0.000000 0.000000 -0.000000 0.000001 0.000000 -0.000000 -0.000000 -0.000000 0.000000 -0.000000 0.000000 0.000000 -0.000000 -0.000000 0.000000 0.000000 0.000000 -0.000000 0.000000 
0.269079 0.000000 -0.000000 -0.000000 0.000000 -0.000000 -0.000000 0.000000 -0.000000 -0.000000 0.000000 -0.000000 0.000000 0.000000 -0.000000 -0.000000 -0.000000 0.000002 1.193418 -1.649860 0.656441 0.000000 0.000000 0.000000 0.000000 0.000000 -0.000000 0.000000 0.000000 -0.000001 -0.000000 -0.000000 -0.000000 0.000000 -0.000000 0.000001 0.000000 -0.000000 -0.000000 -0.000000 0.000000 -0.000000 0.000000 0.000000 -0.000000 -0.000000 0.000000 0.000000 0.000000 -0.000000 0.000000 
0.269079 0.000000 -0.000000 1.227419 -18.610350 1.998083 -0.000000 0.000000 -0.000000 -0.000000 0.000000 -0.000000 -0.000000 0.000000 -0.000000 -0.000000 -0.000001 0.000000 1.456187 -6.447307 1.017977 0.000001 -0.000002 0.000000 0.000000 0.000001 -0.000002 0.131744 -4.612275 0.317374 0.000000 -0.000000 -0.000000 0.000000 0.000002 0.000003 -0.000001 20.860311 -0.000003 -0.000000 -0.000000 0.000001 0.000000 0.000000 0.000002 -0.000000 20.860301 -0.000004 -0.000000 -0.000001 -0.000001 
0.269079 0.000000 -0.000000 1.163830 -1.840546 1.643708 -0.000000 0.000000 0.000000 -0.000000 0.000000 0.000000 -0.000000 0.000000 0.000000 -0.000000 -0.000000 0.000002 1.565659 -12.052722 3.256955 0.000000 0.000001 0.000000 0.000000 0.000000 0.000001 0.277222 -10.456104 2.366202 -0.000000 -0.000001 0.000001 0.000000 -0.000000 -0.000002 -0.607280 1.459356 0.295440 -0.000000 -0.000000 0.000002 -0.000000 0.000000 0.000002 -0.607279 1.459356 0.295436 -0.000001 -0.000001 0.000000 
0.269079 0.000000 -0.000000 1.637067 -1.072265 3.623200 -0.000000 0.000000 0.000000 -0.000000 0.000000 0.000000 -0.000000 0.000000 0.000000 0.000000 -0.000000 0.000004 1.453701 -12.667651 9.071099 0.000001 0.000000 0.000001 0.000001 0.000000 0.000001 0.004078 -11.206661 8.131969 -0.000000 0.000001 0.000001 0.000001 -0.000000 -0.000001 -1.192957 -9.521522 0.414468 -0.000000 0.000000 -0.000001 0.000000 0.000000 -0.000000 -1.192958 -9.521523 0.414468 -0.000001 -0.000001 -0.000001 
0.269079 0.000000 -0.000000 1.637067 -1.072265 3.623200 -0.000000 0.000000 0.000000 -0.000000 0.000000 0.000000 -0.000000 0.000000 0.000000 0.000000 -0.000000 0.000004 3.263412 -2.799867 9.943757 0.000001 0.000001 -0.000002 0.000001 0.000000 0.000001 1.818994 -1.363762 9.252027 -0.000000 0.000000 0.000001 0.000001 -0.000000 -0.000001 -1.491237 -12.784216 0.442641 -0.000000 0.000001 -0.000000 0.000000 0.000000 -0.000000 -1.491236 -12.784215 0.442640 0.000000 -0.000001 0.000002 
0.269079 0.000000 -0.000000 1.637067 -1.072265 3.623200 -0.000000 0.000000 0.000000 -0.000000 0.000000 0.000000 -0.000000 0.000000 0.000000 0.000000 -0.000000 0.000004 3.263412 -2.799867 9.943757 0.000001 0.000001 -0.000002 0.000001 0.000000 0.000001 1.818994 -1.363762 9.252027 -0.000000 0.000000 0.000001 0.000001 -0.000000 -0.000001 -1.491237 -12.784216 0.442641 -0.000000 0.000001 -0.000000 0.000000 0.000000 -0.000000 -1.491236 -12.784215 0.442640 0.000000 -0.000001 0.000002 
0.269079 0.000000 -0.000000 1.637067 -1.072265 3.623200 -0.000000 0.000000 0.000000 -0.000000 0.000000 0.000000 -0.000000 0.000000 0.000000 0.000000 -0.000000 0.000004 3.263412 -2.799867 9.943757 0.000001 0.000001 -0.000002 0.000001 0.000000 0.000001 1.818994 -1.363762 9.252027 -0.000000 0.000000 0.000001 0.000001 -0.000000 -0.000001 -1.491237 -12.784216 0.442641 -0.000000 0.000001 -0.000000 0.000000 0.000000 -0.000000 -1.491236 -12.784215 0.442640 0.000000 -0.000001 0.000002 
